<svg width="23" height="26" viewBox="0 0 23 26" fill="none" xmlns="http://www.w3.org/2000/svg">
<path d="M10.1656 5.00378L5.97862 2.58196L1.79165 0.160128C1.61006 0.0551858 1.4041 -3.9552e-05 1.19447 2.12531e-08C0.984832 3.95945e-05 0.778895 0.0553423 0.597345 0.160353C0.415796 0.265364 0.265025 0.416387 0.160173 0.598251C0.0553208 0.780116 7.9047e-05 0.986419 0 1.19644V10.8837C7.04936e-05 11.0937 0.0553064 11.3 0.160155 11.4819C0.265004 11.6637 0.415773 11.8148 0.597325 11.9198C0.778876 12.0248 0.984816 12.0801 1.19446 12.0801C1.4041 12.0802 1.61005 12.025 1.79165 11.92L5.97862 9.49819L10.1656 7.07641C10.3471 6.97139 10.4979 6.82033 10.6028 6.63842C10.7076 6.45651 10.7628 6.25015 10.7628 6.0401C10.7628 5.83004 10.7076 5.62368 10.6028 5.44177C10.4979 5.25986 10.3471 5.1088 10.1656 5.00378Z" fill="black"/>
<path d="M10.1655 18.4942L5.97862 16.0724L1.79165 13.6506C1.61005 13.5457 1.40409 13.4904 1.19445 13.4905C0.984813 13.4905 0.778876 13.5458 0.597324 13.6508C0.415773 13.7559 0.265001 13.9069 0.160152 14.0888C0.0553035 14.2706 7.04936e-05 14.4769 0 14.687V24.3741C7.04936e-05 24.5842 0.0553035 24.7905 0.160152 24.9723C0.265001 25.1542 0.415773 25.3052 0.597324 25.4103C0.778876 25.5153 0.984813 25.5706 1.19445 25.5706C1.40409 25.5707 1.61005 25.5154 1.79165 25.4105L5.97862 22.9887L10.1655 20.5669C10.3471 20.4619 10.4979 20.3108 10.6028 20.1289C10.7076 19.947 10.7628 19.7406 10.7628 19.5306C10.7628 19.3205 10.7076 19.1141 10.6028 18.9322C10.4979 18.7503 10.3471 18.5992 10.1655 18.4942Z" fill="black"/>
<path d="M22.1071 11.7507L17.9202 9.32886L13.7332 6.90708C13.5516 6.80213 13.3457 6.74691 13.1361 6.74695C12.9264 6.74699 12.7205 6.80229 12.5389 6.9073C12.3574 7.01231 12.2066 7.16333 12.1018 7.3452C11.9969 7.52706 11.9417 7.73337 11.9416 7.94339V17.6306C11.9417 17.8406 11.9969 18.0469 12.1018 18.2288C12.2066 18.4107 12.3574 18.5617 12.5389 18.6667C12.7205 18.7717 12.9264 18.827 13.1361 18.827C13.3457 18.8271 13.5516 18.7719 13.7332 18.6669L17.9202 16.2451L22.1071 13.8233C22.2887 13.7183 22.4395 13.5672 22.5444 13.3853C22.6492 13.2034 22.7044 12.9971 22.7044 12.787C22.7044 12.5769 22.6492 12.3706 22.5444 12.1887C22.4395 12.0068 22.2887 11.8557 22.1071 11.7507Z" fill="black"/>
</svg>
