<?xml version="1.0" encoding="UTF-8" standalone="no"?>
<!-- Created with Inkscape (http://www.inkscape.org/) -->

<svg
   width="65.778061mm"
   height="27.55636mm"
   viewBox="0 0 65.778061 27.55636"
   version="1.1"
   id="svg1"
   inkscape:version="1.4.2 (ebf0e940, 2025-05-08)"
   sodipodi:docname="huskIT.svg"
   xmlns:inkscape="http://www.inkscape.org/namespaces/inkscape"
   xmlns:sodipodi="http://sodipodi.sourceforge.net/DTD/sodipodi-0.dtd"
   xmlns="http://www.w3.org/2000/svg"
   xmlns:svg="http://www.w3.org/2000/svg">
  <sodipodi:namedview
     id="namedview1"
     pagecolor="#ffffff"
     bordercolor="#666666"
     borderopacity="1.0"
     inkscape:showpageshadow="2"
     inkscape:pageopacity="0.0"
     inkscape:pagecheckerboard="0"
     inkscape:deskcolor="#d1d1d1"
     inkscape:document-units="mm"
     inkscape:zoom="2.5610666"
     inkscape:cx="125.72887"
     inkscape:cy="12.885256"
     inkscape:window-width="1512"
     inkscape:window-height="845"
     inkscape:window-x="0"
     inkscape:window-y="33"
     inkscape:window-maximized="1"
     inkscape:current-layer="layer1" />
  <defs
     id="defs1" />
  <g
     inkscape:label="Layer 1"
     inkscape:groupmode="layer"
     id="layer1"
     transform="translate(421.21666,-180.44583)">
    <path
       class="cls-1"
       d="m -421.21666,180.45377 v 14.62352 h 3.25702 c 0,0 0,-4.43971 0,-6.43996 0.11112,-0.67468 0.65087,-1.89441 2.04523,-1.81768 1.9685,0.10318 2.27277,1.25148 2.27277,1.89177 v 6.36587 h 3.175 v -6.51668 c 0,0 0,-4.51644 -4.23334,-4.46882 -1.52664,0.0159 -2.50825,0.71967 -3.25173,1.91029 0.0132,-2.27277 0.0873,-5.55625 0.0873,-5.55625 z"
       id="path1"
       style="fill:#00b1f6;stroke-width:0.264583" />
    <path
       class="cls-1"
       d="m -408.70716,184.47015 v 7.65175 c 0,2.10079 2.23308,3.06916 3.5216,3.06916 a 6.5854791,6.5854791 0 0 0 4.04283,-1.32291 v 1.20914 h 3.175 v -10.60714 h -3.33375 c 0,0 0.0185,3.37079 0,6.46906 0,1.09537 -1.16152,1.81504 -2.29393,1.85208 -1.23296,0.0423 -2.01877,-0.79375 -2.04523,-2.032 -0.0609,-2.76225 0.0635,-2.99508 0.0635,-6.28914 z"
       id="path2"
       style="fill:#00b1f6;stroke-width:0.264583" />
    <path
       class="cls-1"
       d="m -389.85296,187.76421 h 2.64584 c 0,0 -0.31486,-3.47927 -4.78631,-3.47927 -2.91042,0 -4.55613,2.08756 -4.49792,3.59039 0.045,1.19857 1.51606,3.0533 4.23333,3.03742 2.47386,0 2.16694,1.20915 2.16694,1.20915 0,0 -0.22754,1.05833 -1.82033,0.98425 -1.5928,-0.0741 -1.93146,-1.25413 -1.93146,-1.25413 l -2.94217,0.0397 c 0,0 0.63236,3.175 5.25463,3.175 3.43958,0 4.318,-2.14577 4.318,-3.54277 0,-1.397 -1.29117,-2.35215 -2.9554,-2.59556 -1.66423,-0.24342 -3.07975,-0.14023 -3.3311,-1.17475 -0.14023,-0.57944 0.22754,-1.42875 1.82033,-1.42875 a 1.7594791,1.7594791 0 0 1 1.82562,1.43933 z"
       id="path3"
       style="fill:#00b1f6;stroke-width:0.264583" />
    <polygon
       class="cls-1"
       points="204.54,209.31 190.36,224.87 190.21,193.37 178.18,193.37 178.18,248.63 191.35,248.63 190.68,230.52 205.48,248.63 219.99,248.63 200.69,227.71 217.14,209.31 "
       id="polygon3"
       style="fill:#00b1f6"
       transform="matrix(0.26458333,0,0,0.26458333,-432.90596,129.29394)" />
    <rect
       class="cls-2"
       x="-373.48849"
       y="180.45642"
       width="3.1062083"
       height="14.620874"
       id="rect3"
       style="fill:#ffe800;stroke-width:0.264583" />
    <polygon
       class="cls-3"
       points="243.47,193.37 243.47,204.53 260.36,204.53 260.36,248.63 273.82,248.63 273.82,205.11 290.71,204.82 290.71,193.37 "
       id="polygon4"
       style="fill:#c800ff"
       transform="matrix(0.26458333,0,0,0.26458333,-432.90596,129.29394)" />
    <path
       class="cls-1"
       d="m -360.73027,197.31567 h -23.07696 a 5.2916666,5.2916666 0 0 0 -5.29166,5.29166 v 0.10319 a 5.3048958,5.3048958 0 0 0 5.29166,5.29167 h 23.07696 a 5.3048958,5.3048958 0 0 0 5.29167,-5.29167 v -0.10319 a 5.2916666,5.2916666 0 0 0 -5.29167,-5.29166 z m 0.0423,9.19427 h -23.19602 a 3.8735,3.8735 0 0 1 -3.86291,-3.86292 3.8735,3.8735 0 0 1 3.86291,-3.86291 h 23.19602 a 3.8761458,3.8761458 0 0 1 3.86557,3.86291 3.8761458,3.8761458 0 0 1 -3.86557,3.86292 z"
       id="path4"
       style="fill:#00b1f6;stroke-width:0.264583" />
    <path
       class="cls-2"
       d="m -359.57139,202.09404 0.49212,0.26459 a 0.381,0.381 0 0 1 0,0.66939 l -1.08744,0.59531 a 0.36777083,0.36777083 0 0 0 -0.14816,0.14288 l -0.61648,1.07685 a 0.381,0.381 0 0 1 -0.6694,0 l -0.52916,-1.03452 a 0.37041666,0.37041666 0 0 0 -0.15346,-0.15875 l -1.02394,-0.56091 a 0.38364583,0.38364583 0 0 1 0,-0.6694 l 1.09008,-0.59531 a 0.36777083,0.36777083 0 0 0 0.14817,-0.14288 l 0.61648,-1.07685 a 0.381,0.381 0 0 1 0.66939,0.0132 l 0.52917,1.03452 a 0.3571875,0.3571875 0 0 0 0.15346,0.15875 l 0.52917,0.29104"
       id="path5"
       style="fill:#ffe800;stroke-width:0.264583" />
    <path
       class="cls-3"
       d="m -359.57139,202.09404 0.49212,0.26459 a 0.381,0.381 0 0 1 0,0.66939 l -1.08744,0.59531 a 0.36777083,0.36777083 0 0 0 -0.14816,0.14288 l -0.61648,1.07685 a 0.381,0.381 0 0 1 -0.6694,0 l -0.37571,-0.72231 c -0.0344,-0.0661 2.40507,-2.01877 2.40507,-2.01877"
       id="path6"
       style="fill:#c800ff;stroke-width:0.264583" />
  </g>
</svg>
